<svg width="700" height="700" viewBox="0 0 700 700" fill="none" xmlns="http://www.w3.org/2000/svg">
<rect width="700" height="700" fill="#1E1E1E"/>
<rect width="700" height="700" fill="#D9D9D9"/>
<path d="M546 627.5H671.5V431H667.5L665.5 430.5L663.5 430L660.5 428.5L658.5 427.5L657 426.5L655 425L652.5 422.5L650.5 419.5L649 417L647.5 414L645.5 409.5L643.5 400.5L642.5 391.5V376L644 370L645 365L646.5 357.5L648 351L650 345L646 344.5L642.5 343.5L637 342L630 340.5L623.5 339L617.5 337.5L610.5 336L604 334.5L597 333L590.5 331.5L586.5 330L586 337.5L584.5 346.5L582.5 352.5L579 358.5L575 363.5L572 366.5L568 369.5L564 372.5L559.5 374.5L554.5 376.5L551 377.5L548.5 378" stroke="black"/>
<path d="M552.5 627.5H427V431H431L433 430.5L435 430L438 428.5L440 427.5L441.5 426.5L443.5 425L446 422.5L448 419.5L449.5 417L451 414L453 409.5L455 400.5L456 391.5V376L454.5 370L453.5 365L452 357.5L450.5 351L448.5 345L452.5 344.5L456 343.5L461.5 342L468.5 340.5L475 339L481 337.5L488 336L494.5 334.5L501.5 333L508 331.5L512 330L512.5 337.5L514 346.5L516 352.5L519.5 358.5L523.5 363.5L526.5 366.5L530.5 369.5L534.5 372.5L539 374.5L544 376.5L547.5 377.5L550 378" stroke="black"/>
<path d="M286 628H415V432C415 432 381.5 432 386 382.5C386 366.5 393 347 393 347L328 330C328 330 319.416 335.205 311 336.5C304.5 337.5 292.5 338 292.5 338" stroke="black"/>
<path d="M300 628H171V432C171 432 204.5 432 200 382.5C200 366.5 193 347 193 347L258 330C258 330 266.584 335.205 275 336.5C281.5 337.5 293.5 338 293.5 338" stroke="black"/>
<path d="M629.5 271.147L635.5 278.647H510L514.5 271.147C514.5 271.147 506.6 214.147 498.5 173.647C491.7 139.647 472 76.6466 472 76.6466C472 76.6466 495 80.6466 519 53.1466C536.359 33.2557 574.5 36.1466 574.5 36.1466C574.5 36.1466 606.983 35.9875 622 50.1466C646.5 80.1466 672 76.6466 672 76.6466C648 150.647 635.5 194.647 629.5 271.147Z" stroke="black"/>
<path d="M149 291.536H68.5L72.5 283.536L50 228.036H61.5C61.5 228.036 70.5 230.036 98.5 202.536C116.929 184.436 149 186.036 149 186.036" stroke="black"/>
<path d="M146 291.536H226.5L222.5 283.536L245 228.036H233.5C233.5 228.036 224.5 230.036 196.5 202.536C178.071 184.436 146 186.036 146 186.036" stroke="black"/>
<path d="M376 281.536H295.5L299.5 273.536L277 218.036H288.5C288.5 218.036 297.5 220.036 325.5 192.536C343.929 174.436 376 176.036 376 176.036" stroke="black"/>
<path d="M373 281.536H453.5L449.5 273.536L472 218.036H460.5C460.5 218.036 451.5 220.036 423.5 192.536C405.071 174.436 373 176.036 373 176.036" stroke="black"/>
</svg>
